<svg width="93" height="99" viewBox="0 0 93 99" fill="none" xmlns="http://www.w3.org/2000/svg">
<path d="M92.7246 31.9965L86.1621 0.980844C86.084 0.590219 85.8496 0.355844 85.6152 0.277719C85.459 0.121469 85.1465 0.0433441 84.6777 0.121469C84.5215 0.121469 84.4434 0.199594 84.2871 0.277719L57.2559 16.4496C56.709 16.7621 56.4746 17.5433 56.8652 18.0902C57.0215 18.3246 57.1777 18.4808 57.4121 18.559L64.834 21.7621L63.3496 25.5902C62.8809 26.9183 51.5527 55.7465 6.39648 55.7465C4.67773 55.7465 2.80273 55.6683 1.00586 55.5902H0.771484C0.615234 55.5902 0.537109 55.6683 0.380859 55.7465C0.302734 55.8246 0.224609 55.9808 0.224609 56.1371C0.224609 56.3715 0.380859 56.6058 0.615234 56.684L0.771484 56.7621C10.5371 60.0433 20.6934 61.7621 31.0059 61.9183C68.2715 61.9183 81.6309 34.184 81.7871 33.8715L83.584 30.0433L91.1621 33.3246C91.4746 33.4808 91.8652 33.4027 92.0215 33.3246C92.2559 33.2465 92.4902 33.0902 92.6465 32.6996C92.8027 32.4652 92.8027 32.2308 92.7246 31.9965ZM5.53711 98.0121H24.9902V69.809C18.4277 69.3402 11.9434 68.3246 5.53711 66.684V98.0121ZM67.959 59.8871V98.0121H87.4121V40.5902H87.334C84.5215 45.0433 78.3496 53.2465 67.959 59.8871ZM36.709 98.0121H56.1621V65.7465C50.5371 67.8558 44.1309 69.3402 36.709 69.8871V98.0121Z" fill="white"/>
</svg>
