<svg width="87" height="101" viewBox="0 0 87 101" fill="none" xmlns="http://www.w3.org/2000/svg">
<path fill-rule="evenodd" clip-rule="evenodd" d="M28.6488 78.1605C28.0629 72.5952 25.7196 67.3814 21.9704 63.3392C16.698 57.5981 13.9446 50.0996 14.2961 42.3082C14.589 34.751 17.7524 27.6626 23.2006 22.3902C28.6488 17.0592 35.8544 14.1301 43.4115 14.0715H43.5872C59.8145 14.0715 72.937 27.2525 72.937 43.4798C72.937 50.744 70.3008 57.7153 65.3799 63.1635C61.5134 67.3814 59.1701 72.6538 58.5843 78.1605C58.5257 78.1605 58.4086 78.1605 58.35 78.1605H28.6488ZM43.4701 53.4388C37.9048 53.4388 33.3353 48.8694 33.3353 43.3041C33.3353 37.6802 37.9048 33.1107 43.4701 33.1107C49.094 33.1107 53.6634 37.6802 53.6634 43.3041C53.6634 48.8694 49.094 53.4388 43.4701 53.4388ZM40.7167 61.3474C40.4238 61.3474 40.1895 61.3474 39.9551 61.2302L35.21 59.5899C34.6242 59.4142 34.1555 59.0041 33.8626 58.4183C33.6283 57.8911 33.5697 57.2466 33.7454 56.6608L34.3898 54.8448C33.9797 54.4933 33.5111 54.0832 33.101 53.6731L31.3435 54.5519C31.0506 54.7276 30.6991 54.7862 30.3476 54.7862C29.4689 54.7862 28.6488 54.2589 28.2973 53.4974L26.0711 48.9865C25.5439 47.8149 26.0126 46.4675 27.1256 45.8817L28.8831 45.0029C28.8245 44.4757 28.8245 43.8899 28.8245 43.3041L26.9499 42.6597C25.7782 42.2496 25.1338 40.9608 25.5439 39.7305L27.1842 34.9854C27.4771 34.0481 28.3558 33.4622 29.3517 33.4622C29.5861 33.4622 29.879 33.4622 30.1133 33.5794L31.9294 34.2238C32.2809 33.7551 32.6909 33.3451 33.101 32.935L32.2223 31.1775C31.9294 30.5917 31.9294 30.0059 32.1051 29.42C32.3394 28.8342 32.7495 28.3656 33.2768 28.0727L37.7876 25.9051C38.1391 25.7294 38.4906 25.6708 38.8421 25.6708C39.6622 25.6708 40.4824 26.1394 40.8925 26.9596L41.7712 28.7171C42.2984 28.6585 42.8843 28.5999 43.4701 28.5999L44.1145 26.7253C44.4074 25.8465 45.2861 25.2021 46.282 25.2021C46.5164 25.2021 46.8093 25.2607 47.0436 25.3193L51.7888 26.9596C52.3746 27.1353 52.8433 27.604 53.0776 28.1312C53.3705 28.6585 53.4291 29.3029 53.1947 29.8887L52.5503 31.7633C53.019 32.1148 53.4291 32.4663 53.8391 32.8764L55.5966 31.9977C55.9481 31.8805 56.2996 31.7633 56.6511 31.7633C57.4713 31.7633 58.2914 32.2906 58.7015 33.1107L60.869 37.6216C61.1619 38.1488 61.2205 38.7932 60.9862 39.379C60.8104 39.9649 60.4004 40.4335 59.8145 40.6679L58.0571 41.5466C58.1157 42.1324 58.1742 42.6596 58.1742 43.2455L60.0489 43.8899C61.2205 44.3 61.8649 45.6474 61.4549 46.819L59.8145 51.5642C59.5216 52.5015 58.6429 53.1459 57.647 53.1459C57.3541 53.1459 57.1198 53.0873 56.8854 53.0287L55.0108 52.3843C54.6593 52.7944 54.3078 53.2631 53.8977 53.6731L54.7765 55.4306C55.3037 56.5437 54.8351 57.9496 53.6634 58.4769L49.1526 60.703C48.8597 60.8202 48.5082 60.9373 48.1567 60.9373C47.2779 60.9373 46.4578 60.4101 46.1063 59.6485L45.2276 57.891C44.6417 57.9496 44.1145 57.9496 43.5287 57.9496L42.8843 59.8243C42.5328 60.7616 41.654 61.3474 40.7167 61.3474ZM33.3353 51.5056C33.6283 51.5056 33.8626 51.6227 34.0383 51.8571C34.6827 52.5015 35.3857 53.1459 36.1473 53.6731C36.4988 53.9075 36.616 54.3761 36.4988 54.7862L35.6201 57.3052C35.5615 57.4224 35.6201 57.5396 35.6201 57.5981C35.6786 57.6567 35.7372 57.7153 35.8544 57.7739L40.5995 59.4142C40.5995 59.4142 40.6581 59.4142 40.7167 59.4142C40.8339 59.4142 40.951 59.3556 41.0096 59.1799L41.8884 56.6608C42.0641 56.2507 42.4156 55.9578 42.8843 56.0164C43.8216 56.075 44.7589 56.0164 45.6376 55.8407C46.0477 55.7821 46.4578 55.9578 46.6921 56.3679L47.8638 58.7698C47.9223 58.9455 48.0395 58.9455 48.1567 58.9455C48.2153 58.9455 48.2738 58.9455 48.3324 58.9455L52.8433 56.7194C53.019 56.6608 53.0776 56.4265 53.019 56.2507L51.8474 53.8489C51.613 53.4974 51.7302 53.0287 52.0231 52.7358C52.7261 52.0914 53.3705 51.3884 53.8977 50.6268C54.1321 50.2754 54.6007 50.1582 55.0108 50.2754L57.5298 51.1541C57.5298 51.1541 57.5884 51.1541 57.647 51.1541C57.7642 51.1541 57.9399 51.0955 57.9985 50.9198L59.5802 46.1746C59.6974 45.9988 59.5802 45.8231 59.4045 45.7645L56.8854 44.8858C56.4754 44.71 56.1824 44.3585 56.1824 43.8899C56.241 42.9526 56.1824 42.0152 56.0653 41.1365C55.9481 40.7264 56.1824 40.3164 56.5925 40.082L58.9944 38.9104C59.1116 38.8518 59.1116 38.7932 59.1701 38.7346C59.1701 38.6761 59.1701 38.5589 59.1116 38.4417L56.944 33.9309C56.8854 33.8137 56.7097 33.7551 56.6511 33.7551C56.5925 33.7551 56.5339 33.7551 56.4754 33.7551L54.0735 34.9268C53.6634 35.1611 53.1947 35.044 52.9018 34.751C52.316 34.0481 51.613 33.4036 50.8515 32.8764C50.5 32.6421 50.3242 32.1734 50.5 31.7633L51.3787 29.2443C51.3787 29.1271 51.3787 29.01 51.3201 29.01C51.3201 28.9514 51.2615 28.8342 51.1444 28.7756L46.3992 27.1939C46.3406 27.1353 46.3406 27.1353 46.282 27.1353C46.1649 27.1353 45.9891 27.1939 45.9305 27.3697L45.0518 29.8887C44.9346 30.2988 44.5246 30.5917 44.1145 30.5917C43.1772 30.5331 42.2399 30.5917 41.3611 30.7089C40.8925 30.826 40.4824 30.5917 40.3066 30.1816L39.135 27.7797C39.0764 27.6626 38.9007 27.604 38.8421 27.604C38.7835 27.604 38.7249 27.604 38.6663 27.6626L34.1555 29.8301C34.0383 29.8887 33.9798 30.0059 33.9798 30.0059C33.9212 30.0645 33.9212 30.1816 33.9798 30.2988L35.1514 32.7007C35.3271 33.1107 35.2686 33.5794 34.9171 33.8723C34.2727 34.4581 33.6283 35.1611 33.101 35.9227C32.8667 36.2742 32.398 36.4499 31.988 36.2742L29.4689 35.3954C29.4103 35.3954 29.4103 35.3954 29.3517 35.3954C29.2346 35.3954 29.0588 35.454 29.0003 35.6298L27.3599 40.3749C27.3014 40.5507 27.4185 40.785 27.5943 40.8436L30.1133 41.7223C30.5234 41.8395 30.8163 42.2496 30.7577 42.6597C30.6991 43.597 30.7577 44.5343 30.9335 45.413C30.9921 45.8817 30.8163 46.2918 30.4062 46.4675L28.0044 47.6391C27.8286 47.6977 27.77 47.9321 27.8286 48.1078L30.0547 52.6186C30.1133 52.7944 30.2305 52.853 30.3476 52.853C30.4062 52.853 30.4648 52.7944 30.5234 52.7944L32.9253 51.6227C33.0424 51.5642 33.2182 51.5056 33.3353 51.5056ZM43.4701 35.1025C38.9592 35.1025 35.2686 38.7932 35.2686 43.3041C35.2686 47.8149 38.9592 51.5056 43.4701 51.5056C47.9809 51.5056 51.6716 47.8149 51.6716 43.3041C51.6716 38.7932 47.9809 35.1025 43.4701 35.1025ZM43.1186 10.3808C42.5913 10.3808 42.1227 9.97072 42.1227 9.3849V1.06621C42.1227 0.480389 42.5913 0.0703125 43.1186 0.0703125C43.6458 0.0703125 44.0559 0.480389 44.0559 1.06621V9.3849C44.0559 9.97072 43.6458 10.3808 43.1186 10.3808ZM60.5761 14.423C60.459 14.423 60.2832 14.3644 60.1075 14.3058C59.6388 14.0715 59.4631 13.4271 59.756 12.9584L63.7981 5.63563C64.0325 5.16697 64.6769 4.99123 65.1455 5.28414C65.6142 5.51847 65.7899 6.10429 65.497 6.63153L61.4549 13.8957C61.2791 14.2472 60.9276 14.423 60.5761 14.423ZM73.1127 27.3697C72.8198 27.3697 72.4683 27.1939 72.2926 26.901C71.9997 26.4324 72.1754 25.7879 72.6441 25.5536L79.8497 21.2771C80.3184 21.0428 80.9042 21.1599 81.1971 21.6286C81.4314 22.0973 81.3143 22.6831 80.8456 22.976L73.64 27.1939C73.4642 27.3111 73.2885 27.3697 73.1127 27.3697ZM85.7079 44.2414L77.3307 44.007C76.8034 44.007 76.3933 43.597 76.3933 43.0111C76.3933 42.4839 76.862 42.0738 77.3892 42.0738L85.7665 42.3082C86.2938 42.3082 86.7038 42.7768 86.7038 43.3041C86.7038 43.8313 86.2352 44.2414 85.7079 44.2414ZM80.0254 65.5653C79.7911 65.5653 79.6154 65.5068 79.4396 65.3896L72.5269 60.703C72.0583 60.4101 71.9411 59.7657 72.234 59.3556C72.5855 58.8869 73.1713 58.7698 73.64 59.0627L80.5527 63.7493C81.0213 64.0422 81.1385 64.6866 80.787 65.0967C80.6113 65.3896 80.3184 65.5653 80.0254 65.5653ZM26.364 14.5987C26.0126 14.5987 25.7196 14.423 25.5439 14.1301L21.4431 6.80728C21.2088 6.33862 21.3846 5.7528 21.8532 5.45988C22.3219 5.22556 22.9077 5.4013 23.2006 5.86996L27.2428 13.1927C27.4771 13.6614 27.3014 14.2472 26.8327 14.4816C26.7155 14.5987 26.5398 14.5987 26.364 14.5987ZM13.8274 27.5454C13.6517 27.5454 13.5345 27.4868 13.3588 27.4283L6.15315 23.2103C5.68449 22.9174 5.50875 22.3316 5.80166 21.8629C6.09457 21.3943 6.68039 21.2185 7.14905 21.5114L14.3547 25.7294C14.8233 26.0223 14.9405 26.6081 14.7062 27.0768C14.5304 27.3697 14.1789 27.5454 13.8274 27.5454ZM1.29082 44.4757C0.76358 44.4757 0.294922 44.007 0.294922 43.4798C0.294922 42.9526 0.704998 42.5425 1.23224 42.4839L9.60951 42.3082C10.1367 42.2496 10.6054 42.7182 10.6054 43.2455C10.6054 43.7727 10.1953 44.2414 9.66809 44.2414L1.29082 44.4757ZM6.9733 65.7411C6.68039 65.7411 6.3289 65.5653 6.15315 65.331C5.86024 64.8623 5.97741 64.2765 6.44606 63.925L13.3588 59.297C13.8274 58.9455 14.4133 59.0627 14.7062 59.5314C14.9991 60 14.8819 60.5858 14.4718 60.8787L7.50055 65.5653C7.38338 65.6825 7.14905 65.7411 6.9733 65.7411Z" fill="white"/>
<path fill-rule="evenodd" clip-rule="evenodd" d="M58.35 88.0223H27.5943C25.8368 88.0223 24.3722 86.6163 24.3722 84.8003V83.3357C24.3722 81.5196 25.8368 80.1137 27.5943 80.1137H58.35C60.1075 80.1137 61.572 81.5196 61.572 83.3357V84.8003C61.572 86.6163 60.1075 88.0223 58.35 88.0223ZM54.6007 93.9977H31.4021C29.5861 93.9977 28.1801 92.5917 28.1801 90.7757V89.9555H57.8227V90.7757C57.8227 92.5917 56.3582 93.9977 54.6007 93.9977ZM46.9264 100.032H39.0764C36.2645 100.032 33.8626 98.3328 32.7495 95.9895H53.2533C52.1403 98.3328 49.6798 100.032 46.9264 100.032Z" fill="#E0BCBE"/>
</svg>
