<svg width="73" height="101" viewBox="0 0 73 101" fill="none" xmlns="http://www.w3.org/2000/svg">
<path d="M38.2173 34.3009C38.2172 33.9557 38.1146 33.6182 37.9227 33.3312C37.7306 33.044 37.4576 32.8202 37.1382 32.6883C36.9899 32.627 36.8346 32.5867 36.6769 32.5681C37.2619 32.5996 37.8248 32.8109 38.2874 33.1755C38.801 33.5803 39.1597 34.1493 39.3035 34.7872C39.4473 35.4251 39.3674 36.0931 39.0771 36.6791C38.7868 37.265 38.3039 37.7333 37.7093 38.0054L37.4173 38.139V38.4601V44.9905L36.8915 45.5163L36.6428 45.2686L37.0114 44.8332L37.1298 44.6933V44.5101V43.8476V43.7072L37.0567 43.5873L36.6365 42.8981L36.9417 42.5928L37.0882 42.4464V42.2393V41.5768V41.3696L36.9417 41.2232L36.4257 40.7071V40.2518V40.044L36.2785 39.8975L35.434 39.0565V38.3976V38.0915L35.1614 37.9523C34.5904 37.6606 34.1344 37.1849 33.8671 36.602C33.5999 36.0191 33.537 35.3632 33.6886 34.7401C33.8403 34.1171 34.1976 33.5634 34.7029 33.1686C35.1413 32.8259 35.669 32.6203 36.2199 32.5742C36.1894 32.5786 36.159 32.5838 36.1287 32.5899C35.7899 32.6577 35.4789 32.8246 35.2349 33.0693C34.991 33.3141 34.8252 33.6257 34.7585 33.9647C34.6918 34.3038 34.7272 34.655 34.8602 34.9739C34.9933 35.2928 35.2179 35.5651 35.5058 35.7562C35.6514 35.8529 35.8099 35.9266 35.9757 35.9757V36.0534L36.4773 36.0518C36.7066 36.051 36.9335 36.0051 37.145 35.9166C37.3565 35.8282 37.5485 35.6989 37.7101 35.5363C37.8717 35.3736 37.9996 35.1807 38.0867 34.9686C38.1736 34.7568 38.218 34.5299 38.2173 34.3009ZM38.2173 34.3009C38.2173 34.3006 38.2173 34.3004 38.2173 34.3001L37.7173 34.3018L38.2173 34.3018C38.2173 34.3015 38.2173 34.3012 38.2173 34.3009ZM71.7923 9.05415L71.7882 35.7226H53.2965H52.7255L52.8009 36.2885C52.9706 37.564 52.9706 38.8562 52.8009 40.1316L52.7255 40.6976H53.2965H71.734V53.1434C71.734 67.7776 62.9185 79.3798 54.021 87.3581C49.5786 91.3416 45.1341 94.4048 41.7994 96.4722C40.1326 97.5055 38.7444 98.2893 37.7743 98.814C37.2892 99.0764 36.9088 99.2739 36.6503 99.4056C36.5839 99.4394 36.5256 99.4688 36.4756 99.4939C36.4256 99.4688 36.3673 99.4394 36.3008 99.4055C36.0424 99.2739 35.6618 99.0763 35.1767 98.814C34.2063 98.2892 32.8178 97.5054 31.1505 96.4719C27.8151 94.4043 23.3695 91.3406 18.9261 87.3561C10.0266 79.3756 1.20898 67.7693 1.20898 53.1268V40.6851H19.6965H20.2637L20.1925 40.1224C20.031 38.8443 20.031 37.5509 20.1925 36.2728L20.2637 35.7101H19.6965H1.20898V9.05402L36.4716 0.566016L71.7923 9.05415ZM36.5006 51.6434L36.5011 51.6434C40.0683 51.64 43.488 50.2201 46.0086 47.6959C48.5291 45.1717 49.944 41.7499 49.9423 38.1828C49.9406 34.6156 48.5223 31.1952 45.9994 28.6734C43.4764 26.1517 40.0553 24.7351 36.4881 24.7351C32.921 24.7351 29.4999 26.1517 26.9769 28.6734C24.454 31.1952 23.0357 34.6156 23.034 38.1828C23.0323 41.7499 24.4472 45.1717 26.9677 47.6959C29.4883 50.2201 32.908 51.64 36.4752 51.6434H36.4757L36.5006 51.6434Z" fill="white" stroke="black"/>
</svg>
