<svg width="73" height="92" viewBox="0 0 73 92" fill="none" xmlns="http://www.w3.org/2000/svg">
<path d="M61.4814 0.637695C58.8643 1.07324 56.3447 1.22363 54.2744 1.6748C51.3838 2.2959 49.5479 3.15723 48.4541 6.05176C48.1807 6.80957 48.2588 7.22363 48.5322 7.7334C48.8057 8.24512 49.4111 8.81152 50.1924 9.25683C50.9736 9.7041 51.9111 10.0244 52.7119 10.1592C53.4932 10.2939 54.1768 10.1592 54.1768 10.1592H54.1963C57.6924 8.56543 60.0947 4.72363 61.4814 0.637695ZM47.2822 11.5322C46.6182 15.458 44.6455 19.0635 42.3604 22.5205C42.2822 22.9502 42.1846 23.3603 42.0674 23.7705C41.54 25.5869 40.6025 27.3252 39.2744 28.8096L39.2939 28.8291C40.7978 27.6768 42.3213 26.9736 43.8252 26.6221C46.6182 22.6768 49.4502 18.2822 50.5439 13.2393C49.8213 13.0068 49.1182 12.7002 48.4346 12.3115C48.0439 12.083 47.6533 11.8232 47.2822 11.5322ZM30.5439 13.2139C28.2197 13.1943 25.5635 13.6553 22.6533 14.3857C18.0635 15.5361 13.083 17.2666 8.29785 18.2822C11.8525 21.5635 14.6064 25.0205 17.5166 27.3447C21.208 30.2744 24.8994 31.7197 31.8916 29.5322C35.4658 28.4189 37.8682 25.6846 38.6885 22.7939C39.5283 19.9033 38.9033 16.9736 36.2861 14.8994C34.8018 13.7256 32.8486 13.2334 30.5439 13.2139ZM46.4033 29.6885C44.7041 29.6689 43.0049 30.2744 40.9736 31.9932C36.3643 35.8799 38.4932 39.9424 40.5439 40.8604H40.5635C41.0322 41.0752 42.2432 41.1533 43.7861 40.8213C45.3486 40.4893 47.2236 39.7861 49.1572 38.8486C51.9893 37.4814 54.8994 35.5869 57.1455 33.6924C54.5674 32.7158 52.2432 31.3096 50.0361 30.5088C48.8838 30.0791 47.8096 29.7666 46.7353 29.708C46.6182 29.708 46.501 29.6885 46.4033 29.6885ZM34.2744 42.3447C24.8994 42.4424 16.4424 43.2432 10.3096 44.415C7.00879 45.04 4.35059 45.8018 2.67285 46.5635C1.83301 46.9346 1.24512 47.3252 0.963868 47.5986C0.862305 47.6963 0.842773 47.7158 0.81543 47.7549C0.842773 47.7939 0.862305 47.8135 0.963868 47.9111C1.24512 48.1846 1.83301 48.5752 2.67285 48.9463C4.35059 49.708 7.00879 50.4697 10.3096 51.0947C16.9307 52.3643 26.2275 53.165 36.501 53.165C46.7744 53.165 56.0713 52.3643 62.6924 51.0947C65.9932 50.4697 68.6494 49.708 70.3291 48.9463C71.1689 48.5752 71.7549 48.1846 72.0479 47.9111C72.1455 47.8135 72.165 47.7939 72.1846 47.7549C72.165 47.7158 72.1455 47.6963 72.0479 47.5986C71.7549 47.3252 71.1689 46.9346 70.3291 46.5635C68.6494 45.8018 65.9932 45.04 62.6924 44.415C58.9229 43.6924 54.2744 43.126 49.0791 42.7549C47.5166 43.4189 45.9932 43.9463 44.5283 44.2588C42.5947 44.6689 40.7783 44.8057 39.1182 44.0635C38.6885 43.8682 38.2783 43.6338 37.9072 43.3604C38.083 45.0791 38.2978 46.7979 38.5322 48.5361L35.0557 49.0439C34.7236 46.8174 34.4502 44.6104 34.2744 42.3447ZM2.19043 52.5596L3.73145 60.2549C5.72363 61.9541 10.1729 63.6533 15.8369 64.7471C21.833 65.8799 29.1768 66.4658 36.501 66.4658C43.8252 66.4658 51.1689 65.8799 57.165 64.7471C62.8291 63.6533 67.2822 61.9541 69.2744 60.2549L70.8174 52.5596C68.8252 53.3213 66.3057 53.9854 63.3564 54.5518C56.4033 55.8799 46.9502 56.6807 36.501 56.6807C26.0518 56.6807 16.5986 55.8799 9.64551 54.5518C6.69629 53.9854 4.18066 53.3213 2.19043 52.5596ZM10.8955 67.2471L13.1807 85.4893C14.4502 87.0713 17.458 88.7119 21.5205 89.7666C25.8174 90.8799 31.1494 91.4658 36.501 91.4658C41.8525 91.4658 47.1846 90.8799 51.4814 89.7666C55.5439 88.7119 58.5518 87.0713 59.8213 85.4893L62.1064 67.2471C60.7588 67.5986 59.333 67.8916 57.8291 68.1846C51.5205 69.3955 44.0205 69.9814 36.501 69.9814C28.9814 69.9814 21.4814 69.3955 15.1729 68.1846C13.6689 67.9111 12.2432 67.5986 10.8955 67.2471Z" fill="white"/>
</svg>
